<svg id="Layer_1" data-name="Layer 1" xmlns="http://www.w3.org/2000/svg" viewBox="0 0 107.69 170.26"><defs><style>.cls-1{fill:none;}.cls-2{fill:#222;}.cls-3{fill:#d0b64f;stroke:#222;stroke-miterlimit:10;}</style></defs><path class="cls-1" d="M405.12,309.81a25.41,25.41,0,0,0-9.6-11.1,27.81,27.81,0,0,0-15.15-4H365.22v40.12c1-.18,2-.33,3-.46,0,4-.8,8-.51,12-.18.08-.38.14-.55.22a16.55,16.55,0,0,0-1.93,1V358h15.15q9,0,15.22-4.12a26,26,0,0,0,8.81-10,5,5,0,0,0-.65.66c-.45.63-.9,1.3-1.35,1.94-1.27-4.28-.53-8.84-2.13-13.07l1.06,0c2.17-.06,4.35-.11,6.52-.15a43.76,43.76,0,0,0,.57-7.08A38.66,38.66,0,0,0,405.12,309.81Z" transform="translate(-340.62 -273.13)"/><path class="cls-2" d="M408.34,373a46.4,46.4,0,0,0,18.53-18.6,51,51,0,0,0,4.77-12.37l-.06,0c-1.25-.37-3.93-.82-9.28-.82-1.59,0-3.25,0-4.95.09s-3.41.16-5.14.28c-3.64.28-6.3,1.09-7.81,2.37a26,26,0,0,1-8.81,10Q389.37,358,380.37,358H365.22V347.6a10.54,10.54,0,0,0-4,3.86c-.43,1-.84,2-1.18,3.06a8.39,8.39,0,0,0-.44,2.63c0,2.51.93,3.5,1.67,4a2.82,2.82,0,0,1,1.56,2.63,3.35,3.35,0,0,1-1.92,2.93,4,4,0,0,1-3.27.39l-.43-.19c-1.53-.85-3.13-2.58-5-5.45a22.34,22.34,0,0,1-3.4-7,19.65,19.65,0,0,1-.63-4.74,12,12,0,0,1,4.11-9.6,22.16,22.16,0,0,1,9.18-4.51c1.24-.31,2.49-.56,3.76-.78V294.73h15.15a27.81,27.81,0,0,1,15.15,4,25.41,25.41,0,0,1,9.6,11.1,38.66,38.66,0,0,1,3.3,16.42,43.76,43.76,0,0,1-.57,7.08c4.54-.08,9.06-.13,13.5-.13H430c1,0,2.09,0,3.13.07.22-2.27.35-4.61.35-7a59.94,59.94,0,0,0-5.93-26.77,45.34,45.34,0,0,0-17.77-19.2q-11.85-7.12-29.4-7.13H340.62v106.5h39.75Q396.42,379.63,408.34,373Z" transform="translate(-340.62 -273.13)"/><path class="cls-3" d="M435.41,413a1.88,1.88,0,0,0-1.28.67l-.08.09a53.76,53.76,0,0,1-16.13,13.9,68.84,68.84,0,0,1-19.86,7.3,107.86,107.86,0,0,1-21.53,2.17,38.28,38.28,0,0,1-13.14-2.31,7,7,0,0,1-4.88-7.14,23,23,0,0,1,1.65-7.73,96,96,0,0,1,3.85-9c1.44-2.94,2.68-5.39,3.69-7.27,1.43-2.61,2.58-4.79,3.53-6.68s2.06-4,3.3-6.23a2.2,2.2,0,0,1,1.86-1c1.64-.13,3.15-.19,4.49-.19h4c5.12,0,9.87.13,14.09.38s9.51.38,15.74.38a8.82,8.82,0,0,0,6.09-2.45,15.76,15.76,0,0,0,3.65-4.68c.46-1,.87-2.09.35-2.92a1.51,1.51,0,0,0-1.35-.69c-.32,0-.65.11-1.59.67a16.93,16.93,0,0,1-4.21,1.25,46.05,46.05,0,0,1-5.58.74c-1.8.13-3.18.25-4.1.38-3.88.13-8.41.13-13.47,0s-10-.19-14.37-.19c-.57,0-.73-.12-.71-.14a1.64,1.64,0,0,1,0-.45c.13-.21.25-.43.38-.65H368.32c-2.85,5-5.73,10-8.64,14.94-5.06,8.67-10.05,17.47-14.82,26.13-2.1,3.68-3.17,6.92-3.17,9.62,0,5.65,4.84,8.93,14.36,9.73,4.08.51,8.26.86,12.43,1.05s8.36.29,12.4.29c7.21,0,13.89-.29,19.85-.86a80.22,80.22,0,0,0,13.12-2c3.85-1.19,7.72-4.14,11.5-8.77s7.48-9.15,11.46-14.05a3.08,3.08,0,0,0,.34-2.35C436.85,413.2,435.93,413,435.41,413Z" transform="translate(-340.62 -273.13)"/><path class="cls-3" d="M445.69,337.23c-1.4-1.32-3.75-2-7.15-2.17-2.82-.25-5.69-.38-8.55-.38h-8.64c-6.56,0-13.28.09-20,.28s-13.45.29-20.11.29c-2.67,0-5.76.09-9.18.28a56,56,0,0,0-10.25,1.55,20.85,20.85,0,0,0-8.58,4.2,10.56,10.56,0,0,0-3.58,8.46,18.48,18.48,0,0,0,.59,4.4,21,21,0,0,0,3.19,6.51c1.75,2.63,3.23,4.25,4.52,5l.17.08a2.45,2.45,0,0,0,2.05-.27,1.94,1.94,0,0,0,1.17-1.63,1.31,1.31,0,0,0-.78-1.31c-1.65-1.08-2.45-2.83-2.45-5.34a9.71,9.71,0,0,1,.52-3.11c.37-1.11.81-2.23,1.25-3.25a13.31,13.31,0,0,1,6.65-5.55,47.49,47.49,0,0,1,11.16-3.16,124,124,0,0,1,12.44-1.41l4.75-.28a19.68,19.68,0,0,0-1.94,1.46,26.68,26.68,0,0,0-5.14,5.64c-1.82,2.89-3.66,5.9-5.48,9a24.68,24.68,0,0,0,12.42-3.82,23.41,23.41,0,0,0,3.9-3.27c1.29-1.94,2.59-3.85,3.91-5.69,1.58-2,4.79-3.25,9.54-3.6,1.74-.13,3.49-.22,5.19-.29s3.4-.09,5-.09a37.87,37.87,0,0,1,9.75.9,6.28,6.28,0,0,1,4.06,3.35,14.05,14.05,0,0,1,1.15,5.77,30.34,30.34,0,0,1-.93,7.38,2,2,0,0,0,.46,2.08,2.07,2.07,0,0,0,2.21.12,5.48,5.48,0,0,0,3-2.65q1.71-3.24,3.71-7.14a16.54,16.54,0,0,0,2.11-7.39A6.51,6.51,0,0,0,445.69,337.23Z" transform="translate(-340.62 -273.13)"/></svg>