<svg id="Layer_1" data-name="Layer 1" xmlns="http://www.w3.org/2000/svg" viewBox="0 0 300.61 60.92"><defs><style>.cls-1{fill:#222;}.cls-1,.cls-2{stroke:#000;stroke-miterlimit:10;stroke-width:0.25px;}.cls-2{fill:#d0b64f;}</style></defs><path class="cls-1" d="M150.49,341.29V307.21h12.72a18,18,0,0,1,9.41,2.28,14.53,14.53,0,0,1,5.69,6.15,19.2,19.2,0,0,1,1.89,8.56,18.43,18.43,0,0,1-2.11,9,14.83,14.83,0,0,1-5.93,5.95,18.14,18.14,0,0,1-8.95,2.11Zm21.7-17.09a12.28,12.28,0,0,0-1.06-5.25,8.08,8.08,0,0,0-3.07-3.55,8.88,8.88,0,0,0-4.85-1.28h-4.85v20.26h4.85a8.6,8.6,0,0,0,4.87-1.32,8.43,8.43,0,0,0,3-3.65A12.38,12.38,0,0,0,172.19,324.2Z" transform="translate(-150.37 -302.55)"/><path class="cls-1" d="M184,313.26v-7h7.68v7Zm0,28v-25.2h7.68v25.2Z" transform="translate(-150.37 -302.55)"/><path class="cls-1" d="M206.8,341.77a10.51,10.51,0,0,1-4.56-1,10.32,10.32,0,0,1-3.53-2.75,12.9,12.9,0,0,1-2.28-4.06,14.61,14.61,0,0,1-.82-5,15.05,15.05,0,0,1,.87-5.15,12.51,12.51,0,0,1,2.42-4.16,11,11,0,0,1,8.42-3.72,10.34,10.34,0,0,1,5,1.17,9,9,0,0,1,3.45,3.34v-4.13h6.67v23.33a11.45,11.45,0,0,1-1.84,6.52,12.18,12.18,0,0,1-5.14,4.27,18.32,18.32,0,0,1-7.61,1.5,16.6,16.6,0,0,1-6.93-1.33,15.32,15.32,0,0,1-5.07-3.71l4.13-4.18a10.4,10.4,0,0,0,3.46,2.54,10.29,10.29,0,0,0,4.41,1,8.88,8.88,0,0,0,3.43-.64,5.66,5.66,0,0,0,2.52-2,6.23,6.23,0,0,0,1-3.63v-2.5a7.45,7.45,0,0,1-3.33,3.19A10.32,10.32,0,0,1,206.8,341.77Zm2.68-6.1a5.2,5.2,0,0,0,1.64-.26,6.16,6.16,0,0,0,1.48-.72,6.86,6.86,0,0,0,1.25-1.11,5.12,5.12,0,0,0,.91-1.42v-5.3a6.71,6.71,0,0,0-1.39-2.34,7.1,7.1,0,0,0-2-1.54,5.1,5.1,0,0,0-2.31-.55,4.63,4.63,0,0,0-2.23.55,5.61,5.61,0,0,0-1.8,1.54,7.5,7.5,0,0,0-1.18,2.17,7.75,7.75,0,0,0-.4,2.53,7,7,0,0,0,.45,2.55,6.34,6.34,0,0,0,1.27,2,6.41,6.41,0,0,0,1.92,1.37A5.67,5.67,0,0,0,209.48,335.67Z" transform="translate(-150.37 -302.55)"/><path class="cls-1" d="M227.72,313.26v-7h7.68v7Zm0,28v-25.2h7.68v25.2Z" transform="translate(-150.37 -302.55)"/><path class="cls-1" d="M257,339.9a21.21,21.21,0,0,1-2.28.91,19.63,19.63,0,0,1-2.64.7,15,15,0,0,1-2.76.26,9.2,9.2,0,0,1-3.5-.64,5.31,5.31,0,0,1-2.54-2.1,7,7,0,0,1-1-3.88V322.23h-3.22v-5.85h3.22v-8.07H250v8.07H255v5.85H250v10.19a2.53,2.53,0,0,0,.62,1.8,2.21,2.21,0,0,0,1.58.54,5.27,5.27,0,0,0,1.76-.31l1.6-.55Z" transform="translate(-150.37 -302.55)"/><path class="cls-1" d="M258.39,333.85a7,7,0,0,1,1.4-4.29,9.25,9.25,0,0,1,3.84-2.95,13.93,13.93,0,0,1,5.61-1.06,18,18,0,0,1,3,.26,11.88,11.88,0,0,1,2.59.75v-1.11a3.78,3.78,0,0,0-1.25-3.08,5.79,5.79,0,0,0-3.79-1.05,10.88,10.88,0,0,0-3.94.72,20.84,20.84,0,0,0-3.93,2.07l-2.31-4.9a19.2,19.2,0,0,1,5.21-2.42,20.31,20.31,0,0,1,5.74-.79c3.77,0,6.71.88,8.8,2.64s3.15,4.34,3.15,7.73v6.41a2.73,2.73,0,0,0,.36,1.61,1.57,1.57,0,0,0,1.22.52v6.38a10.65,10.65,0,0,1-1.77.31c-.55,0-1,.07-1.44.07a5.23,5.23,0,0,1-3.27-.86,4.07,4.07,0,0,1-1.44-2.35l-.19-1.11a10.87,10.87,0,0,1-4,3.29,11.07,11.07,0,0,1-4.87,1.13,9.7,9.7,0,0,1-4.49-1,7.88,7.88,0,0,1-3.14-2.82A7.39,7.39,0,0,1,258.39,333.85Zm15.27.91a3.71,3.71,0,0,0,.86-1,1.78,1.78,0,0,0,.34-.95v-2.19a11.29,11.29,0,0,0-2.16-.58,12.92,12.92,0,0,0-2.21-.21,6.1,6.1,0,0,0-3.46.93,2.78,2.78,0,0,0-1.39,2.37,2.7,2.7,0,0,0,.48,1.52,3.23,3.23,0,0,0,1.32,1.12,4.71,4.71,0,0,0,2,.39,7.18,7.18,0,0,0,2.31-.39A6.05,6.05,0,0,0,273.66,334.76Z" transform="translate(-150.37 -302.55)"/><path class="cls-1" d="M288,306.25h7.68v26.06a3.45,3.45,0,0,0,.58,2.26,2.07,2.07,0,0,0,1.68.67,5.54,5.54,0,0,0,1.41-.19,4.39,4.39,0,0,0,1.32-.57l1,5.8a19,19,0,0,1-3.31,1.06,15.55,15.55,0,0,1-3.51.43,6.92,6.92,0,0,1-5.08-1.75,6.72,6.72,0,0,1-1.78-5Z" transform="translate(-150.37 -302.55)"/><path class="cls-2" d="M316.29,342.05c-1.35,0-2.71,0-4.1-.1s-2.75-.18-4.09-.34c-3-.26-4.48-1.22-4.48-2.9a6.44,6.44,0,0,1,1-3q2.4-4.33,4.92-8.66t5-8.66c.51-.92,1.16-2.08,2-3.47s1.59-2.7,2.39-4a8.52,8.52,0,0,1,1.64-1.79,5.15,5.15,0,0,1,2.2-1.17l-3.37.19c-1.36.09-2.75.25-4.15.48a15.54,15.54,0,0,0-3.78,1.07,4.66,4.66,0,0,0-2.37,2c-.17.38-.31.76-.44,1.13a3.78,3.78,0,0,0-.19,1.14,2.26,2.26,0,0,0,1,2.08s.06,0,.06.12-.07.17-.22.26a.51.51,0,0,1-.41.06,5,5,0,0,1-1.38-1.54,6.79,6.79,0,0,1-1-2.05,5.63,5.63,0,0,1-.19-1.39,3.19,3.19,0,0,1,1.07-2.55,6.55,6.55,0,0,1,2.71-1.32,17.85,17.85,0,0,1,3.34-.51c1.13-.06,2.14-.09,3-.09q3.34,0,6.68-.1c2.23-.06,4.43-.09,6.62-.09h2.86c.95,0,1.88,0,2.81.13a3.35,3.35,0,0,1,2.17.63,1.82,1.82,0,0,1,.6,1.38,5.17,5.17,0,0,1-.66,2.3c-.44.86-.85,1.65-1.23,2.36a1.48,1.48,0,0,1-.82.73c-.38.15-.53,0-.44-.35a10.35,10.35,0,0,0,.31-2.52,4.88,4.88,0,0,0-.41-2.05,2.41,2.41,0,0,0-1.54-1.29,12.91,12.91,0,0,0-3.34-.31l-1.67,0-1.73.09c-1.68.13-2.81.57-3.4,1.33a69.64,69.64,0,0,0-4,6.27q-1.92,3.36-3.69,6.39a.73.73,0,0,0-.06.32c0,.25.19.37.57.37,1.47,0,3,0,4.75.07s3.2,0,4.51,0c.29,0,.74-.09,1.35-.13a16.37,16.37,0,0,0,1.89-.25,6,6,0,0,0,1.48-.44,1.3,1.3,0,0,1,.38-.19q.38,0,0,.72a4.82,4.82,0,0,1-1.13,1.45,2.62,2.62,0,0,1-1.8.73c-2.06,0-3.79-.05-5.2-.13s-3-.13-4.69-.13h-1.32c-.46,0-1,0-1.51.07a1.08,1.08,0,0,0-.89.5c-.42.76-.78,1.45-1.1,2.08s-.7,1.37-1.16,2.2c-.34.64-.75,1.44-1.23,2.43a29.45,29.45,0,0,0-1.29,3,8,8,0,0,0-.57,2.68,2.66,2.66,0,0,0,1.83,2.68,13,13,0,0,0,4.47.79,35.56,35.56,0,0,0,7.21-.73,23.29,23.29,0,0,0,6.68-2.45,18,18,0,0,0,5.45-4.7.35.35,0,0,1,.19-.12c.13,0,.21.11.25.34a.77.77,0,0,1-.06.54l-3.78,4.63a8.1,8.1,0,0,1-3.66,2.8,26.83,26.83,0,0,1-4.28.66C320.87,342,318.68,342.05,316.29,342.05Z" transform="translate(-150.37 -302.55)"/><path class="cls-2" d="M338,341.42a3.06,3.06,0,0,1-2.58-.92,3.52,3.52,0,0,1-.7-2.23,10.5,10.5,0,0,1,.79-3.78q.79-2,1.29-3.15l-1.57,1.7c-.51.54-.86.94-1.07,1.19s-.23.26-.32.26-.12-.11-.12-.32a1.58,1.58,0,0,1,.31-.94c.59-.76,1.26-1.56,2-2.4s1.49-1.72,2.2-2.64c.84-1.56,1.78-3.37,2.81-5.45s2.09-4.22,3.21-6.43,2.2-4.24,3.27-6.11a48,48,0,0,1,2.87-4.5,10.88,10.88,0,0,0,2.05-1.14q1-.69,1.95-1.29a3.84,3.84,0,0,1,2.05-.6,1.35,1.35,0,0,1,1,.38,2,2,0,0,1,.47.88,2.68,2.68,0,0,1,.06.69,8.61,8.61,0,0,1-1,3.53,34.08,34.08,0,0,1-2.27,4.07c-.86,1.32-1.61,2.4-2.24,3.24a67.84,67.84,0,0,1-5.16,6.4c-1.77,1.91-3.35,3.5-4.76,4.78s-2.43,2.22-3.06,2.81c-.29.54-.64,1.27-1,2.17a22.74,22.74,0,0,0-1,2.84,9.43,9.43,0,0,0-.45,2.74,3,3,0,0,0,.51,1.79,1.92,1.92,0,0,0,1.7.73h.38a1.59,1.59,0,0,0,.44-.07,5.32,5.32,0,0,0,2.33-1.19,25.62,25.62,0,0,0,2.52-2.34c.84-.88,1.6-1.72,2.27-2.52.29-.33.56-.66.82-1s.42-.54.5-.66c.29.29.28.66,0,1.1l-.79,1.1c-.29.38-.71.89-1.26,1.55s-1.17,1.35-1.89,2.11a20.86,20.86,0,0,1-3,2.39A6.33,6.33,0,0,1,338,341.42Zm2.65-14.49q2-1.64,4.94-4.7a50,50,0,0,0,5.89-7.4c.21-.33.56-.9,1-1.7s1-1.71,1.51-2.74a31.46,31.46,0,0,0,1.36-3,7.29,7.29,0,0,0,.56-2.56c0-.67-.18-1-.56-1s-1.07.4-1.83,1.19a25.92,25.92,0,0,0-3,4.07c-1.11,1.78-2.28,3.77-3.5,5.95s-2.38,4.33-3.49,6.43S341.45,325.37,340.61,326.93Z" transform="translate(-150.37 -302.55)"/><path class="cls-2" d="M350.87,341.79c-1.72,0-2.92-.33-3.59-1a3.35,3.35,0,0,1-1-2.46,9.27,9.27,0,0,1,1-3.91,36.72,36.72,0,0,1,1.86-3.52,18.9,18.9,0,0,1,2.71-3.15,17.87,17.87,0,0,1,3.72-2.78,8,8,0,0,1,3.9-1.13,2.76,2.76,0,0,1,2.27.79,2.87,2.87,0,0,1,.63,1.86,4.53,4.53,0,0,1-1.17,3.21,9,9,0,0,1-2.86,2.05A30.76,30.76,0,0,1,355,333c-.63.17-1.36.33-2.2.5a12.09,12.09,0,0,1-2.4.25,17.94,17.94,0,0,0-.69,2.21,8.41,8.41,0,0,0-.25,1.95,2.86,2.86,0,0,0,.53,1.77,2.15,2.15,0,0,0,1.8.69,6.49,6.49,0,0,0,1.2-.13,12.35,12.35,0,0,0,1.51-.38,12.64,12.64,0,0,0,3.71-2,28.54,28.54,0,0,0,3.38-3c1-1.07,1.81-2,2.36-2.68a.63.63,0,0,1,.19.44,2.34,2.34,0,0,1-.44,1,26.34,26.34,0,0,1-3.28,3.65A20.64,20.64,0,0,1,356,340.5,10.86,10.86,0,0,1,350.87,341.79Zm.07-9.26a9.69,9.69,0,0,0,1.85,0,9.55,9.55,0,0,0,2-.41,6.65,6.65,0,0,0,3.75-2.42,5.4,5.4,0,0,0,1.17-3,2.3,2.3,0,0,0-.32-1.25,1.09,1.09,0,0,0-1-.51,4.62,4.62,0,0,0-3.27,1.36,14.43,14.43,0,0,0-2.52,3.11A30.23,30.23,0,0,0,350.94,332.53Z" transform="translate(-150.37 -302.55)"/><path class="cls-2" d="M351.69,363.34a10.43,10.43,0,0,1-4.63-1.1,7,7,0,0,1-3.31-3.37,5.16,5.16,0,0,1-.56-1.73,12.31,12.31,0,0,1-.13-1.8v-.63a3.14,3.14,0,0,1,.13-.94.62.62,0,0,1,.69-.45.12.12,0,0,1,.13.13,4,4,0,0,1-.07.76,5.13,5.13,0,0,0-.06.81,5.36,5.36,0,0,0,1.86,4.42,7.14,7.14,0,0,0,4.63,1.51,11.24,11.24,0,0,0,2.33-.26,10.57,10.57,0,0,0,2.21-.69,20.23,20.23,0,0,0,7-4.91,36.76,36.76,0,0,0,5.23-7.25,78.56,78.56,0,0,0,4-8.28c1.15-2.84,2.23-5.51,3.24-8a23.71,23.71,0,0,1-2.9,3.81,43.59,43.59,0,0,1-3.52,3.31,22.81,22.81,0,0,1-2.62,1.89,5.72,5.72,0,0,1-3.05.88,1,1,0,0,1-.89-.41,1.93,1.93,0,0,1-.25-1v-.44a16.41,16.41,0,0,1,1.61-5.1,27.37,27.37,0,0,1,3.12-5,21.18,21.18,0,0,1,3.71-3.78,7.64,7.64,0,0,1,4.73-1.64h7.24c.21,0,.32.09.32.25q0,.51-.57.51a2,2,0,0,0-1.32.57,5,5,0,0,0-1,1.07c-.42.67-1,1.7-1.63,3.08s-1.41,3-2.21,4.76-1.6,3.59-2.39,5.42-1.54,3.54-2.21,5.13a70.17,70.17,0,0,1-3.43,7,30.16,30.16,0,0,1-4.54,6.17,19,19,0,0,1-6.2,4.32A11.58,11.58,0,0,1,351.69,363.34Zm13.17-24.07a3.79,3.79,0,0,0,2.08-1.1,33.92,33.92,0,0,0,2.9-2.77,42.29,42.29,0,0,0,5.26-6.93,5.29,5.29,0,0,0,.91-2.36,1,1,0,0,0-.41-.95,2,2,0,0,0-1-.25,4,4,0,0,0-2.14.73,10.6,10.6,0,0,0-1.83,1.41,14.24,14.24,0,0,0-1.79,2.18c-.7,1-1.39,2.07-2.08,3.24a28,28,0,0,0-1.73,3.4,7.18,7.18,0,0,0-.7,2.65Q364.29,339.27,364.86,339.27Z" transform="translate(-150.37 -302.55)"/><path class="cls-2" d="M388.23,341.48a2.09,2.09,0,0,1-1.07-.25,1,1,0,0,1-.44-1,5.72,5.72,0,0,1,.44-2,22.31,22.31,0,0,1,1-2.24c.38-.73.71-1.33,1-1.8-1.47,1.56-3,3-4.6,4.42a21.58,21.58,0,0,1-2.65,1.89,5.87,5.87,0,0,1-3.08.88A1,1,0,0,1,378,341a1.83,1.83,0,0,1-.25-1,1.11,1.11,0,0,1,.06-.44,16.86,16.86,0,0,1,1.58-5.1,26.17,26.17,0,0,1,3.09-5,21.18,21.18,0,0,1,3.71-3.78,7.64,7.64,0,0,1,4.73-1.64h7.24c.21,0,.32.09.32.25q0,.51-.57.51a1.7,1.7,0,0,0-1.26.79,13.13,13.13,0,0,0-.94,1.29c-.3.46-.76,1.24-1.39,2.33s-1.27,2.28-1.92,3.56-1.21,2.47-1.67,3.56a7.14,7.14,0,0,0-.69,2.39.78.78,0,0,0,.88.88,3.75,3.75,0,0,0,2.14-.88,18.81,18.81,0,0,0,2.43-2.17c.82-.86,1.57-1.72,2.26-2.59s1.25-1.54,1.67-2c.26.25.24.6,0,1a9.93,9.93,0,0,1-.72,1q-1.26,1.63-2.9,3.37a17,17,0,0,1-3.56,2.89A7.47,7.47,0,0,1,388.23,341.48Zm-6.8-2.21a3.91,3.91,0,0,0,2.11-1.1,31.19,31.19,0,0,0,2.93-2.77,38.66,38.66,0,0,0,3-3.53,40.24,40.24,0,0,0,2.3-3.4,5.29,5.29,0,0,0,.91-2.36,1,1,0,0,0-.41-.95,2,2,0,0,0-1-.25,4.12,4.12,0,0,0-2.17.73,10.2,10.2,0,0,0-1.86,1.41,14.24,14.24,0,0,0-1.79,2.18c-.7,1-1.38,2.07-2.05,3.24a32.63,32.63,0,0,0-1.7,3.4,7.18,7.18,0,0,0-.7,2.65Q380.92,339.27,381.43,339.27Z" transform="translate(-150.37 -302.55)"/><path class="cls-2" d="M398.56,342.24q-.24,0,0-.57a12.37,12.37,0,0,0,.6-1.26c.19-.46.39-1,.6-1.51.42-1,.88-2.15,1.39-3.4l1.45-3.69c.46-1.2.87-2.23,1.22-3.09s.6-1.41.73-1.67c-.59.63-1.29,1.42-2.11,2.37s-1.59,1.85-2.3,2.74-1.26,1.57-1.64,2.07c-.12.17-.23.26-.31.26s-.13-.11-.13-.32a1.53,1.53,0,0,1,.32-.94c.79-1,1.68-2.15,2.67-3.4s1.88-2.43,2.68-3.5,1.3-1.78,1.51-2.11l2.05-.38a4.19,4.19,0,0,0,1.86-.69.52.52,0,0,1,.38-.19c.08,0,.13.07.15.22a.66.66,0,0,1-.15.47,15.72,15.72,0,0,0-1.3,2.05c-.61,1.07-1.26,2.26-2,3.56s-1.33,2.48-1.92,3.53a21.55,21.55,0,0,1,1.64-2l1.7-1.82c.5-.51,1.2-1.14,2.08-1.89a25.35,25.35,0,0,1,2.77-2.08,6.16,6.16,0,0,1,2.52-1.07,1.62,1.62,0,0,1,.47-.07h.35c.92,0,1.39.34,1.39,1a4.16,4.16,0,0,1-.82,2c-.3.46-.75,1.23-1.36,2.3s-1.22,2.22-1.83,3.46-1.13,2.4-1.57,3.47a7.15,7.15,0,0,0-.66,2.36.78.78,0,0,0,.88.88,3.88,3.88,0,0,0,2.36-1.07,28.14,28.14,0,0,0,2.81-2.74q1.5-1.66,3-3.56a.62.62,0,0,1,.13.44,1.45,1.45,0,0,1-.29.85c-.19.28-.37.52-.53.73-.42.54-1,1.22-1.67,2s-1.4,1.62-2.11,2.4a17.87,17.87,0,0,1-2,1.86,13,13,0,0,1-1.63.94,4.46,4.46,0,0,1-2,.5,1.81,1.81,0,0,1-1.57-.59,2.41,2.41,0,0,1-.45-1.48,6.87,6.87,0,0,1,.38-2.15,23.3,23.3,0,0,1,.85-2.17c.32-.69.56-1.21.73-1.54.75-1.47,1.45-2.86,2.08-4.16s1.07-2.23,1.32-2.77a1.46,1.46,0,0,0,.19-.63c0-.3-.23-.32-.69-.07a12.85,12.85,0,0,0-1.67,1.14c-.66.5-1.25,1-1.8,1.48s-.9.81-1.07,1a28.34,28.34,0,0,0-4.06,5.44,41.1,41.1,0,0,0-2.93,6.15,4.72,4.72,0,0,0-1.64.44A3.51,3.51,0,0,1,398.56,342.24Z" transform="translate(-150.37 -302.55)"/><path class="cls-2" d="M421.62,341.79a4.79,4.79,0,0,1-3.28-.88,2.94,2.94,0,0,1-.94-2.26,8.75,8.75,0,0,1,1.2-4.07,33.78,33.78,0,0,1,2.27-3.75,21.39,21.39,0,0,1,2.42-2.74,16.55,16.55,0,0,1,2.93-2.23A18.79,18.79,0,0,1,429,324.5a8,8,0,0,1,2.93-.72,2.56,2.56,0,0,1,2,.66,2.42,2.42,0,0,1,.56,1.6,5,5,0,0,1-.25,1.55,14.24,14.24,0,0,1-.57,1.48,1,1,0,0,1-.56.53c-.26.11-.38.08-.38-.09a2.49,2.49,0,0,1,.06-.57,2.34,2.34,0,0,0,.06-.56,5.59,5.59,0,0,0-.53-2.37,1.72,1.72,0,0,0-1.61-1.16,4.81,4.81,0,0,0-2.45.79,7.86,7.86,0,0,0-1.83,1.35,24.55,24.55,0,0,0-3.18,4.22A21,21,0,0,0,421,336a7.49,7.49,0,0,0-.44,2.27,1.8,1.8,0,0,0,.57,1.51,2.21,2.21,0,0,0,1.38.44,5.29,5.29,0,0,0,1.36-.19c.48-.13,1-.27,1.54-.44a14.8,14.8,0,0,0,3.81-2,28.83,28.83,0,0,0,3.5-2.9A21.16,21.16,0,0,0,435.1,332a.49.49,0,0,1,.13.38,1.48,1.48,0,0,1-.25.72c-.17.28-.3.5-.38.66a23.58,23.58,0,0,1-3.47,3.63,22.39,22.39,0,0,1-4.63,3.12A10.85,10.85,0,0,1,421.62,341.79Z" transform="translate(-150.37 -302.55)"/><path class="cls-2" d="M437.56,341.79c-1.72,0-2.92-.33-3.59-1a3.35,3.35,0,0,1-1-2.46,9.27,9.27,0,0,1,1-3.91,39.3,39.3,0,0,1,1.85-3.52,19.89,19.89,0,0,1,2.71-3.15,18.41,18.41,0,0,1,3.72-2.78,8,8,0,0,1,3.91-1.13,2.77,2.77,0,0,1,2.27.79,2.92,2.92,0,0,1,.63,1.86,4.53,4.53,0,0,1-1.17,3.21,9.07,9.07,0,0,1-2.87,2.05,29.83,29.83,0,0,1-3.27,1.29c-.63.17-1.37.33-2.21.5a12.07,12.07,0,0,1-2.39.25,16.47,16.47,0,0,0-.7,2.21,9,9,0,0,0-.25,1.95,2.81,2.81,0,0,0,.54,1.77,2.13,2.13,0,0,0,1.79.69,6.32,6.32,0,0,0,1.2-.13,11.91,11.91,0,0,0,1.51-.38,12.81,12.81,0,0,0,3.72-2,28.43,28.43,0,0,0,3.37-3,32.26,32.26,0,0,0,2.36-2.68.59.59,0,0,1,.19.44,2.34,2.34,0,0,1-.44,1,25.11,25.11,0,0,1-3.28,3.65,20.16,20.16,0,0,1-4.47,3.18A10.85,10.85,0,0,1,437.56,341.79Zm.06-9.26a9.79,9.79,0,0,0,1.86,0,9.68,9.68,0,0,0,2-.41,6.65,6.65,0,0,0,3.75-2.42,5.45,5.45,0,0,0,1.16-3,2.3,2.3,0,0,0-.31-1.25,1.1,1.1,0,0,0-1-.51,4.66,4.66,0,0,0-3.28,1.36,15,15,0,0,0-2.52,3.11A32.26,32.26,0,0,0,437.62,332.53Z" transform="translate(-150.37 -302.55)"/><text x="-150.37" y="-302.55"/></svg>